<svg xmlns="http://www.w3.org/2000/svg" xmlns:xlink="http://www.w3.org/1999/xlink" fill="none" version="1.1"
     width="539.9041137695312" height="389.1199951171875" viewBox="0 0 539.9041137695312 389.1199951171875">
    <g>
        <path d="M43.776,0C43.776,0,160.512,0,160.512,0C160.512,0,116.736,389.12,116.736,389.12C116.736,389.12,0,389.12,0,389.12C0,389.12,43.776,0,43.776,0C43.776,0,43.776,0,43.776,0ZM233.472,0C233.472,0,350.208,0,350.208,0C350.208,0,306.432,389.12,306.432,389.12C306.432,389.12,189.696,389.12,189.696,389.12C189.696,389.12,233.472,0,233.472,0C233.472,0,233.472,0,233.472,0ZM423.168,0C423.168,0,539.904,0,539.904,0C539.904,0,496.128,389.12,496.128,389.12C496.128,389.12,379.392,389.12,379.392,389.12C379.392,389.12,423.168,0,423.168,0C423.168,0,423.168,0,423.168,0Z"
              fill="#7a49c5" fill-opacity="1"/>
    </g>
    <g transform="translate(48.64,0)">
        <path d="M0,0C0,0,228.608,0,228.608,0C228.608,0,228.608,116.736,228.608,116.736C228.608,116.736,0,116.736,0,116.736C0,116.736,0,0,0,0C0,0,0,0,0,0ZM184.832,272.384C184.832,272.384,413.44,272.384,413.44,272.384C413.44,272.384,413.44,389.12,413.44,389.12C413.44,389.12,184.832,389.12,184.832,389.12C184.832,389.12,184.832,272.384,184.832,272.384C184.832,272.384,184.832,272.384,184.832,272.384Z"
              fill="#7a49c5" fill-opacity="1"/>
    </g>
</svg>
